<svg width="16" height="16" viewBox="0 0 16 16" fill="none" xmlns="http://www.w3.org/2000/svg">
<g opacity="0.6">
<path d="M12 1C12.2651 1.0003 12.5191 1.10599 12.7065 1.29346C12.894 1.48093 12.9997 1.73488 13 2V5H14C14.2651 5.0003 14.5191 5.10599 14.7065 5.29346C14.894 5.48093 14.9997 5.73488 15 6V15H1V6C1.0003 5.73488 1.10599 5.48093 1.29346 5.29346C1.48093 5.10599 1.73488 5.0003 2 5H3V2C3.0003 1.73488 3.10599 1.48093 3.29346 1.29346C3.48093 1.10599 3.73488 1.0003 4 1H12ZM4 2V6H2V14H6V10.5C6 10.3674 6.05272 10.2403 6.14648 10.1465C6.24025 10.0527 6.36739 10 6.5 10H9.5C9.63261 10 9.75975 10.0527 9.85352 10.1465C9.94728 10.2403 10 10.3674 10 10.5V14H14V6H12V2H4ZM7 11V14H9V11H7ZM8.5 3V5H10.5V6H8.5V8H7.5V6H5.5V5H7.5V3H8.5Z" fill="#1E1E1E"/>
</g>
</svg>
