<svg width="16" height="16" viewBox="0 0 16 16" fill="none" xmlns="http://www.w3.org/2000/svg">
<g opacity="0.6">
<path d="M8.49981 10.9998H9.99981V11.9998H5.99981V10.9998H7.49981V7.99981H6.49981V6.99981H8.49981V10.9998Z" fill="#1E1E1E"/>
<path d="M7.99981 3.99981C8.19872 3.99981 8.38992 4.07888 8.53057 4.21954C8.67115 4.36014 8.74976 4.55099 8.74981 4.74981C8.74981 4.89814 8.70624 5.04347 8.62383 5.1668C8.54142 5.29014 8.42396 5.38592 8.28692 5.44268C8.14992 5.49943 7.99926 5.51455 7.85381 5.48565C7.70835 5.45672 7.57442 5.38543 7.46954 5.28057C7.36465 5.17568 7.2934 5.04178 7.26446 4.89629C7.23554 4.75089 7.25025 4.60017 7.30694 4.46319C7.36371 4.32614 7.45997 4.20869 7.58331 4.12628C7.70658 4.04392 7.85156 3.99985 7.99981 3.99981Z" fill="#1E1E1E"/>
<path fill-rule="evenodd" clip-rule="evenodd" d="M6.63458 1.13458C7.99239 0.864528 9.39998 1.00322 10.679 1.53301C11.958 2.06284 13.051 2.96007 13.8201 4.11114C14.5893 5.26223 14.9998 6.61541 14.9998 7.99981C14.9998 9.85633 14.2623 11.6368 12.9495 12.9495C11.6368 14.2623 9.85633 14.9998 7.99981 14.9998C6.61541 14.9998 5.26223 14.5893 4.11114 13.8201C2.96007 13.051 2.06284 11.958 1.53301 10.679C1.00322 9.39998 0.864528 7.99239 1.13458 6.63458C1.40467 5.27671 2.07114 4.02907 3.0501 3.0501C4.02907 2.07114 5.27671 1.40467 6.63458 1.13458ZM7.99981 1.99981C6.81328 1.99985 5.6534 2.35188 4.6668 3.01104C3.68012 3.67032 2.91097 4.60757 2.45684 5.70391C2.00272 6.80027 1.88402 8.00682 2.11553 9.17071C2.34705 10.3344 2.91817 11.4034 3.75713 12.2425C4.59623 13.0816 5.66555 13.6531 6.8294 13.8846C7.99329 14.1161 9.19984 13.9974 10.2962 13.5433C11.3925 13.0891 12.3293 12.32 12.9886 11.3333C13.6479 10.3466 13.9998 9.1865 13.9998 7.99981C13.9998 6.40858 13.3677 4.88231 12.2425 3.75713C11.1173 2.63204 9.59102 1.99981 7.99981 1.99981Z" fill="#1E1E1E"/>
</g>
</svg>
