<svg width="16" height="16" viewBox="0 0 16 16" fill="none" xmlns="http://www.w3.org/2000/svg">
<g opacity="0.6">
<path d="M9.5 9C10.4283 9 11.3187 9.36852 11.9751 10.0249C12.6315 10.6813 13 11.5717 13 12.5V15H12V12.5C12 12.1717 11.9352 11.8467 11.8096 11.5435C11.6839 11.2401 11.4997 10.9646 11.2676 10.7324C11.0354 10.5003 10.7599 10.3161 10.4565 10.1904C10.1533 10.0648 9.82827 10 9.5 10H6.5C5.83696 10 5.20126 10.2636 4.73242 10.7324C4.26358 11.2013 4 11.837 4 12.5V15H3V12.5C3 11.5717 3.36853 10.6813 4.0249 10.0249C4.68128 9.36852 5.57174 9 6.5 9H9.5ZM8 1C8.92826 1 9.81872 1.36853 10.4751 2.0249C11.1315 2.68128 11.5 3.57174 11.5 4.5C11.5 5.19219 11.2947 5.86879 10.9102 6.44434C10.5256 7.0199 9.97888 7.46849 9.33936 7.7334C8.69987 7.99828 7.99627 8.06762 7.31738 7.93262C6.63845 7.79757 6.01439 7.46458 5.5249 6.9751C5.03542 6.48561 4.70243 5.86155 4.56738 5.18262C4.43238 4.50374 4.50172 3.80013 4.7666 3.16064C5.03151 2.52112 5.4801 1.97442 6.05566 1.58984C6.63121 1.20531 7.30781 1 8 1ZM8 2C7.33696 2 6.70126 2.26358 6.23242 2.73242C5.76358 3.20126 5.5 3.83696 5.5 4.5C5.5 4.99445 5.64668 5.47804 5.92139 5.88916C6.19608 6.30019 6.58671 6.62038 7.04346 6.80957C7.50025 6.99876 8.00287 7.0486 8.48779 6.95215C8.97273 6.85568 9.41795 6.6172 9.76758 6.26758C10.1172 5.91795 10.3557 5.47273 10.4521 4.98779C10.5486 4.50287 10.4988 4.00025 10.3096 3.54346C10.1204 3.08671 9.80019 2.69608 9.38916 2.42139C8.97804 2.14668 8.49445 2 8 2Z" fill="#1E1E1E"/>
</g>
</svg>
